PathFileType	4	(X/Y/Z)	8_coords_data.trc
DataRate	CameraRate	NumFrames	NumMarkers	Units	OrigDataRate	OrigDataStartFrame	OrigNumFrames
30.0	30.0	6	21	m	30.0	40	59
Frame#	Time	THUMB_TIP	THUMB_IP	THUMB_MCP	THUMB_CMC	INDEX_TIP	INDEX_DIP	INDEX_PIP	INDEX_MCP	MIDDLE_TIP	MIDDLE_DIP	MIDDLE_PIP	MIDDLE_MCP	RING_TIP	RING_DIP	RING_PIP	RING_MCP	PINKY_TIP	PINKY_DIP	PINKY_PIP	PINKY_MCP	WRIST
X1	Y1	Z1	X2	Y2	Z2	X3	Y3	Z3	X4	Y4	Z4	X5	Y5	Z5	X6	Y6	Z6	X7	Y7	Z7	X8	Y8	Z8	X9	Y9	Z9	X10	Y10	Z10	X11	Y11	Z11	X12	Y12	Z12	X13	Y13	Z13	X14	Y14	Z14	X15	Y15	Z15	X16	Y16	Z16	X17	Y17	Z17	X18	Y18	Z18	X19	Y19	Z19	X20	Y20	Z20	X21	Y21	Z21
39	1.3	-0.055607101440429685	-0.08570899963378906	0.9663280029296875	-0.05345909881591797	-0.06215499877929687	0.9778820190429688	-0.057386798858642576	-0.040654399871826175	0.9940670166015625	-0.06066479873657227	-0.010546299934387207	1.006030029296875	-0.04399810028076172	-0.04881499862670898	0.8775770263671875	-0.047497100830078125	-0.04466550064086914	0.8989500122070313	-0.053827400207519534	-0.03972090148925781	0.9195650024414063	-0.0616083984375	-0.0288971004486084	0.9543670043945313	-0.04314739990234375	-0.019450199127197264	0.8608619995117187	-0.0478125	-0.017570600509643555	0.8845819702148437	-0.05705830001831055	-0.014432100296020508	0.9105449829101563	-0.06380770111083985	-0.008859020233154297	0.9479240112304688	-0.04029710006713867	0.00465093994140625	0.8692979736328125	-0.048440601348876955	0.006686460018157959	0.89110498046875	-0.057905200958251954	0.00837382984161377	0.9145239868164062	-0.06141830062866211	0.009698860168457031	0.948583984375	-0.04501369857788086	0.037869998931884766	0.8920170288085938	-0.04933990097045898	0.03499810028076172	0.9116290283203125	-0.05361159896850586	0.031877599716186526	0.9282579956054687	-0.05692309951782227	0.02663279914855957	0.9536270141601563	-0.0854916000366211	0.016546199798583985	1.0202899780273438
40	1.3333333333333333	-0.055440601348876954	-0.08546479797363281	0.9654990234375	-0.05330289840698242	-0.062015098571777345	0.9771929931640625	-0.05709320068359375	-0.04068239974975586	0.9936199951171875	-0.06045280075073242	-0.010608699798583985	1.0057999877929686	-0.0447578010559082	-0.04810409927368164	0.8769990234375	-0.04818980026245117	-0.0441343994140625	0.8984639892578125	-0.05434000015258789	-0.03937179946899414	0.919114013671875	-0.06176499938964844	-0.028782400131225586	0.9539959716796875	-0.043502601623535156	-0.018821500778198243	0.8605260009765625	-0.048261398315429686	-0.0170935001373291	0.8842150268554687	-0.05749449920654297	-0.01412600040435791	0.9101840209960937	-0.06407389831542969	-0.008649009704589844	0.9476580200195313	-0.04090790176391602	0.0050841598510742185	0.8689650268554687	-0.048786998748779294	0.007002580165863037	0.8908809814453125	-0.05809519958496094	0.008559160232543946	0.9143469848632813	-0.061491199493408207	0.009846719741821289	0.9485540161132813	-0.04540399932861328	0.03778739929199219	0.8919550170898437	-0.04959370040893555	0.03493330001831055	0.911593994140625	-0.05374420166015625	0.031853900909423825	0.92825	-0.05688650131225586	0.026667800903320313	0.95360498046875	-0.08539530181884766	0.016398000717163085	1.02022998046875
41	1.3666666666666667	-0.05605440139770508	-0.0856134033203125	0.9653309936523438	-0.053627300262451175	-0.06214540100097656	0.977031005859375	-0.05731869888305664	-0.0407848014831543	0.9935349731445312	-0.06046609878540039	-0.010692500114440917	1.0057000122070312	-0.04426679992675781	-0.04819729995727539	0.8770239868164063	-0.0479010009765625	-0.044231201171875	0.8984310302734375	-0.05422679901123047	-0.03947959899902344	0.9190260009765625	-0.061952400207519534	-0.028899299621582032	0.9539840087890625	-0.04235329818725586	-0.018823799133300782	0.8607689819335937	-0.04744879913330078	-0.01710840034484863	0.88431298828125	-0.057054901123046876	-0.01416919994354248	0.9101500244140625	-0.06410520172119141	-0.0088287296295166	0.9475869750976562	-0.04065679931640625	0.00494320011138916	0.86889599609375	-0.048544601440429686	0.0068760099411010744	0.8907960205078125	-0.057808101654052736	0.008464670181274414	0.9142659912109375	-0.061372600555419925	0.009689359664916993	0.9484719848632812	-0.044863201141357424	0.037422500610351565	0.89197900390625	-0.049127601623535154	0.034632801055908206	0.911593017578125	-0.05333670043945313	0.03159679985046387	0.9282219848632812	-0.05659280014038086	0.0264950008392334	0.9535280151367187	-0.08535079956054688	0.016426599502563477	1.02027001953125
42	1.4	-0.055360099792480466	-0.08555879974365234	0.9652860107421875	-0.05310430145263672	-0.06212530136108398	0.9769760131835937	-0.05685760116577149	-0.04073030090332031	0.9936510009765624	-0.06018410110473633	-0.01074720001220703	1.0058200073242187	-0.04353659820556641	-0.04805690002441406	0.8771380004882813	-0.047285598754882814	-0.04414559936523438	0.898541015625	-0.053731201171875	-0.039439498901367186	0.9191430053710937	-0.06165650177001953	-0.029016199111938475	0.9539210205078125	-0.040872501373291015	-0.018658300399780274	0.8610650024414063	-0.04637760162353516	-0.017004400253295898	0.8845869750976563	-0.056342498779296875	-0.014145099639892578	0.91022802734375	-0.06378170013427735	-0.008864399909973144	0.9476909790039062	-0.04009619903564453	0.0050204601287841795	0.8690609741210937	-0.04803459930419922	0.006913440227508545	0.8909669799804687	-0.057404998779296876	0.008447810173034668	0.91443798828125	-0.06109909820556641	0.009619739532470703	0.9486119995117187	-0.04465390014648438	0.037398700714111326	0.8921370239257812	-0.04890169906616211	0.03459260177612305	0.9117570190429688	-0.053097900390625	0.03153479957580566	0.928385986328125	-0.05631330108642578	0.02640679931640625	0.9536699829101563	-0.08498490142822265	0.016226200103759764	1.0200599975585938
43	1.4333333333333333	-0.05454520034790039	-0.08528759765625	0.9651400146484375	-0.05235340118408203	-0.06183729934692383	0.9768909912109375	-0.05618399810791016	-0.04057099914550781	0.9935880126953125	-0.05963790130615235	-0.010619500160217284	1.0058099975585937	-0.043031700134277345	-0.0475447998046875	0.877041015625	-0.04692380142211914	-0.04369910049438477	0.8984340209960937	-0.05343370056152344	-0.0390978012084961	0.91910302734375	-0.06116609954833984	-0.028797399520874022	0.9539240112304688	-0.04155509948730469	-0.018209100723266602	0.860802978515625	-0.04672909927368164	-0.01660530090332031	0.8844329833984375	-0.05639580154418945	-0.013846799850463868	0.910197998046875	-0.06341279983520508	-0.008689189910888672	0.9476900024414062	-0.040419601440429685	0.005639410018920899	0.8689310302734375	-0.04816460037231445	0.007405710220336914	0.890947998046875	-0.057310600280761716	0.008791609764099121	0.9144979858398438	-0.060642898559570314	0.009814780235290527	0.94868701171875	-0.04446900177001953	0.03796599960327148	0.8922869873046875	-0.04862099838256836	0.034999298095703124	0.9118880004882812	-0.05274620056152344	0.03183130073547363	0.9284849853515625	-0.05590039825439453	0.026565999984741212	0.9537210083007812	-0.08462180328369141	0.016364700317382814	1.0201599731445312
44	1.4666666666666666	-0.05465999984741211	-0.08517420196533203	0.9651220092773437	-0.05248580169677734	-0.061730201721191404	0.9769569702148437	-0.0562046012878418	-0.04048199844360351	0.9935579833984375	-0.05951559829711914	-0.010463199615478515	1.0058200073242187	-0.04252050018310547	-0.047458999633789065	0.8771370239257813	-0.046673500061035156	-0.04361930084228516	0.8984559936523437	-0.05332059860229492	-0.03900979995727539	0.9190679931640625	-0.061047000885009764	-0.02861960029602051	0.9539530029296875	-0.04098630142211914	-0.018087799072265626	0.860875	-0.04637149810791016	-0.016456600189208984	0.8844320068359375	-0.05623949813842773	-0.013666600227355956	0.910177001953125	-0.0633025016784668	-0.008493729591369629	0.9476840209960937	-0.04010699844360351	0.005741930007934571	0.86897900390625	-0.04785919952392578	0.0075405101776123045	0.89093701171875	-0.05703200149536133	0.00897655963897705	0.9144639892578125	-0.06048059844970703	0.010010299682617187	0.948614990234375	-0.04413669967651367	0.03833160018920898	0.8923460083007813	-0.048323101043701175	0.035301601409912106	0.9119420166015625	-0.05247050094604492	0.03207849884033203	0.9285250244140625	-0.055568401336669924	0.026736400604248048	0.9537160034179688	-0.08427300262451172	0.016435400009155273	1.0201799926757813
